<svg width="60" height="87" viewBox="0 0 60 87" fill="none" xmlns="http://www.w3.org/2000/svg">
<path d="M35.6167 30.1643C35.5932 30.1643 35.5274 30.1649 35.4659 30.1659C46.8251 32.1201 56.1906 41.1514 57.9995 53.1571C60.2564 68.1393 49.904 82.1649 34.9215 84.4219C19.939 86.6791 5.91368 76.3264 3.65643 61.3439C2.09573 50.9843 6.56474 41.0836 14.4236 35.213C14.873 33.9322 11.0367 36.8486 11.9765 35.8758C11.6527 36.0575 12.5692 35.5138 12.2514 35.7082C9.03966 37.6761 9.63573 36.9049 7.38895 39.9488C5.14184 42.9929 3.52909 46.3867 2.5949 50.0357C1.62765 53.8141 1.4342 57.7017 2.02011 61.5904C2.6057 65.4791 3.93597 69.1369 5.97358 72.4629C7.94148 75.6747 10.4825 78.4426 13.5264 80.6893C16.5705 82.9364 19.9639 84.5492 23.6133 85.4834C27.3916 86.4506 31.2793 86.6441 35.1677 86.0585C39.0566 85.4726 42.7145 84.1423 46.0405 82.1047C49.2523 80.1371 52.0201 77.5958 54.2669 74.5519C56.514 71.5078 58.1268 68.114 59.061 64.465C60.0282 60.6866 60.2979 56.7869 59.6358 52.9106C56.1608 32.5587 35.751 30.1649 35.6167 30.1643Z" fill="#8C4D02"/>
<path d="M11.2505 37.1297L10.5615 36.5798L10.751 37.2129L10.1523 36.6417C10.2201 36.5707 17.7257 29.9753 17.0946 24.5747L17.5038 24.5132C18.3441 30.0915 11.55 36.8162 11.2505 37.1297Z" fill="#8C4D02"/>
<path d="M12.3438 27.0082L12.0053 27.292C12.566 28.0681 13.0753 29.2402 13.1719 29.9535C13.5421 32.6876 11.3366 35.1292 8.74609 38.156C9.30353 38.2293 9.96343 38.4133 10.5107 38.573C12.0819 36.2964 13.8374 33.1469 13.6829 30.6114C13.6118 29.4474 13.0606 27.9934 12.3438 27.0082Z" fill="#8C4D02"/>
<path d="M14.4228 35.2132C12.4101 36.8718 12.1914 35.6348 12.1914 35.6348C12.3583 35.386 17.9599 33.0083 21.1893 25.6755L21.5991 25.6785C20.7998 27.4578 19.2391 31.8326 14.4228 35.2132Z" fill="#8C4D02"/>
<path d="M32.1094 24.0698C32.1094 24.0698 39.4605 22.9464 45.6401 12.4579C45.6015 12.559 44.6657 14.9606 42.5318 17.608C40.5571 20.0584 37.146 23.1687 32.1094 24.0698Z" fill="white"/>
<path d="M11.8613 11.2603C11.863 11.0711 11.9166 6.57815 13.3844 2.65185C13.3844 2.65185 12.6227 6.66097 11.8613 11.2603Z" fill="white"/>
<path d="M21.7231 13.4858C21.8864 18.3516 19.8 22.7519 18.4422 24.9623C18.2206 25.3227 19.0845 20.8445 16.7513 13.3366C16.7513 13.3366 17.8855 20.9165 17.5693 25.8035L17.0612 26.2778C17.0612 26.2778 11.3153 20.9044 10.6531 13.5418C9.99129 6.17923 13.021 -7.43866e-05 13.021 -7.43866e-05C13.021 -7.43866e-05 21.4252 4.61591 21.7231 13.4858Z" fill="#5B8E19"/>
<path d="M37.9246 23.6886C32.9564 26.0624 25.5712 26.8267 22.1477 27.1603C22.1477 27.1603 23.6633 23.9881 26.0554 21.1676C28.3241 18.4923 31.2311 16.1139 31.2311 16.1139C27.0072 18.2563 23.6819 22.1047 21.0089 27.0284L20.3906 27.3145C20.3906 27.3145 20.5504 20.5401 26.5113 14.0141C33.2618 6.62371 48.3621 8.88391 48.3621 8.88391C48.3621 8.88391 47.2675 19.2245 37.9246 23.6886Z" fill="#5B8E19"/>
<path d="M9.21527 20.4001C11.0935 22.8422 12.5121 26.4828 13.0863 28.3358C13.3259 29.1089 13.0136 29.29 13.0136 29.29C13.0136 29.29 11.1337 25.0151 7.70629 22.799C7.70629 22.799 9.4097 24.7843 10.5727 26.2723C11.736 27.7604 12.3943 29.4229 12.3943 29.4229C10.9858 29.3204 8.01038 28.9639 5.43103 27.1172C0.553512 23.6255 0 16.4584 0 16.4584C0 16.4584 5.72235 15.8587 9.21527 20.4001Z" fill="#5B8E19"/>
<path d="M18.3304 50.9898C18.3304 50.0441 17.5877 49.3351 16.6761 49.3351C16.2034 49.3351 15.7982 49.504 15.4604 49.8081C15.1567 50.1119 15.0218 50.5171 15.0218 50.9898C15.0218 51.4287 15.1567 51.8339 15.4604 52.1377C15.7982 52.4752 16.2034 52.6441 16.6761 52.6441C17.1151 52.6441 17.52 52.4752 17.824 52.1377C18.1615 51.8339 18.3304 51.4287 18.3304 50.9898ZM13.8739 62.7058C15.2244 62.7058 15.7645 61.8616 15.7645 61.0852V58.3167H15.1904C13.5361 58.3167 11.4765 59.0931 11.4765 61.0512C11.4765 61.9968 12.2533 62.7058 13.8739 62.7058ZM14.0761 50.9898C14.0761 50.0441 13.3672 49.3351 12.4555 49.3351C11.9829 49.3351 11.5776 49.504 11.2402 49.8081C10.9364 50.1119 10.7675 50.5171 10.7675 50.9898C10.7675 51.4287 10.9364 51.8339 11.2402 52.1377C11.5776 52.4752 11.9829 52.6441 12.4555 52.6441C12.8945 52.6441 13.2997 52.4752 13.6038 52.1377C13.9076 51.8339 14.0761 51.4287 14.0761 50.9898ZM18.3304 61.3553C18.3304 62.0302 18.0604 65.4744 14.3465 65.4744C12.1181 65.4744 8.77539 64.9343 8.77539 61.5579C8.77539 58.6542 11.0713 55.4804 16.0008 55.4804C16.3386 55.4804 17.0139 55.4804 18.3304 55.7841V61.3553Z" fill="#5B8E19"/>
<path d="M23.7333 65.2718C23.7333 63.2123 23.5981 58.8569 23.5307 57.8775C23.9022 57.6752 24.4086 57.4052 24.6786 57.2025C25.1854 56.9322 26.1307 56.3921 26.6708 56.122V62.4693H26.9071V65.4745H26.6371C26.5359 68.5471 25.5228 71.8223 18.2637 71.8557L19.0401 71.4842C22.4842 70.404 23.7333 68.0067 23.7333 65.2718Z" fill="#5B8E19"/>
<path d="M37.576 64.968C38.9266 64.968 40.0408 63.8197 40.0408 62.4358C40.0408 61.1186 38.9266 59.9707 37.576 59.9707C36.2255 59.9707 35.0775 61.1186 35.0775 62.4358C35.0775 63.8197 36.2255 64.968 37.576 64.968ZM26.4004 62.4692H32.2078C32.3764 59.3969 34.706 57.0335 37.6101 57.0335C40.5138 57.0335 42.9108 59.532 42.9782 62.4692H43.3498V65.4744H41.8981C40.9187 66.8249 39.3659 67.804 37.6101 67.804C35.7865 67.804 34.2334 66.8249 33.2543 65.4744H26.4004V62.4692Z" fill="#5B8E19"/>
<path d="M50.509 46.4994C49.5974 46.4994 48.8543 47.2084 48.8543 48.1537C48.8543 49.0653 49.5974 49.808 50.509 49.808C51.4203 49.808 52.1633 49.0653 52.1633 48.1537C52.1633 47.2084 51.4203 46.4994 50.509 46.4994ZM48.3142 42.8189C47.3686 42.8189 46.6262 43.562 46.6262 44.4736C46.6262 45.3852 47.3686 46.1279 48.3142 46.1279C49.2259 46.1279 49.9689 45.3852 49.9689 44.4736C49.9689 43.562 49.2259 42.8189 48.3142 42.8189ZM46.2881 46.4994C45.3431 46.4994 44.6341 47.2084 44.6341 48.1537C44.6341 49.0653 45.3431 49.808 46.2881 49.808C47.2337 49.808 47.9427 49.0653 47.9427 48.1537C47.9427 47.2084 47.2337 46.4994 46.2881 46.4994ZM49.2259 62.4694C49.1921 60.3424 48.9218 56.2233 48.5506 53.826L51.2517 52.3743C51.5217 54.1975 52.0959 58.8904 52.0959 62.2671C52.0959 63.2462 52.0284 64.4956 51.927 65.4746H42.8105V62.4694H49.2259Z" fill="#5B8E19"/>
<path d="M17.3395 73.5003C17.2668 73.5704 17.2305 73.6578 17.2305 73.7625V74.0129H18.7594V77.9628C18.7594 78.1189 18.7954 78.2293 18.8671 78.2937C18.9388 78.3582 19.0478 78.3906 19.1941 78.3906H19.4373V74.0129H20.6177C20.7204 74.0129 20.8108 73.971 20.8893 73.8876C20.9676 73.8044 21.0069 73.7236 21.0069 73.6457V73.3913H17.6629C17.5202 73.394 17.4121 73.4303 17.3395 73.5003Z" fill="#8C4D02"/>
<path d="M23.0864 74.5777C22.804 74.5777 22.5634 74.668 22.365 74.8484C22.254 74.9492 22.076 74.8696 22.076 74.7197V73.6294C22.076 73.5292 22.0802 73.4445 22.0779 73.3751C22.0783 73.3705 22.0792 73.3665 22.0792 73.362C22.0792 73.3302 22.0734 73.2998 22.0652 73.2706C22.0648 73.27 22.0645 73.269 22.0642 73.2684C22.0236 73.1302 21.8973 73.0287 21.746 73.0287C21.5941 73.0287 21.4675 73.1312 21.4272 73.27C21.4164 73.2942 21.4102 73.3207 21.4102 73.3489V77.9789C21.4076 78.2532 21.5601 78.3904 21.8684 78.3904H21.8822C21.9781 78.3904 22.0557 78.3128 22.0557 78.2169V76.232C22.0557 75.9037 22.1522 75.6441 22.3457 75.4533C22.5418 75.2651 22.7738 75.1708 23.0422 75.1708C23.6059 75.176 23.8877 75.5191 23.8877 76.1996V77.9789C23.8877 78.2532 24.0449 78.3904 24.3597 78.3904C24.4553 78.3904 24.5332 78.3128 24.5332 78.2169V76.1826C24.5303 75.1125 24.0481 74.5777 23.0864 74.5777Z" fill="#8C4D02"/>
<path d="M27.326 77.1034C27.326 77.3777 27.2638 77.5741 27.1401 77.6926C27.013 77.8108 26.8189 77.87 26.5574 77.87C26.2933 77.87 26.0854 77.8134 25.9345 77.7005C25.7836 77.5875 25.708 77.4491 25.708 77.2851C25.7106 76.8546 26.0789 76.6396 26.8124 76.6396H27.326V77.1034ZM26.5574 74.5575C26.126 74.5575 25.7924 74.6409 25.5564 74.8075C25.3208 74.9745 25.2029 75.1545 25.2029 75.3483V75.655H25.2429C25.49 75.3188 25.8864 75.1506 26.432 75.1506C26.742 75.148 26.9672 75.2049 27.1076 75.3214C27.2477 75.438 27.3178 75.6252 27.3178 75.8831V76.0465H26.8137C26.2514 76.0435 25.8196 76.1525 25.5185 76.3728C25.217 76.5931 25.0651 76.8907 25.0625 77.2651C25.0625 77.6396 25.2023 77.9329 25.4815 78.145C25.7636 78.3571 26.1276 78.4631 26.5734 78.4631C27.0288 78.4631 27.3754 78.3446 27.614 78.1073C27.8523 77.8703 27.9715 77.5509 27.9715 77.1492V75.9725C27.9688 75.5142 27.8409 75.164 27.5882 74.9214C27.3325 74.6789 26.9888 74.5575 26.5574 74.5575Z" fill="#8C4D02"/>
<path d="M32.3971 74.5737C32.1549 74.5737 31.929 74.6349 31.7192 74.757C31.5094 74.8794 31.3415 75.0414 31.2148 75.2434C30.9755 74.7969 30.603 74.5737 30.0973 74.5737C29.5916 74.5737 29.2017 74.7282 28.9271 75.0365C28.6528 75.3481 28.5169 75.7291 28.5196 76.1802V77.9196C28.5196 78.2335 28.6662 78.3906 28.9595 78.3906H29.1654V76.26C29.1654 75.5314 29.4462 75.1668 30.0086 75.1668C30.2747 75.1668 30.4819 75.2637 30.6299 75.4571C30.7778 75.6509 30.8518 75.9186 30.8518 76.26V77.9186C30.8518 78.2332 30.9942 78.3906 31.2796 78.3906H31.4973V76.244C31.4973 75.862 31.566 75.5877 31.7032 75.4211C31.8403 75.2542 32.0636 75.1694 32.3729 75.1668C32.9107 75.1694 33.1797 75.534 33.1797 76.26V77.9186C33.1797 78.0662 33.2187 78.1821 33.2969 78.2656C33.3748 78.3487 33.477 78.3906 33.6036 78.3906H33.8256V76.2486C33.8256 75.1321 33.3493 74.5737 32.3971 74.5737Z" fill="#8C4D02"/>
<path d="M36.6268 77.1034C36.6268 77.3777 36.5646 77.5741 36.4408 77.6926C36.3138 77.8108 36.1197 77.87 35.8582 77.87C35.594 77.87 35.3862 77.8134 35.2353 77.7005C35.0844 77.5875 35.0088 77.4491 35.0088 77.2851C35.0114 76.8546 35.3796 76.6396 36.1132 76.6396H36.6268V77.1034ZM35.8582 74.5575C35.4268 74.5575 35.0932 74.6409 34.8572 74.8075C34.6215 74.9745 34.5037 75.1545 34.5037 75.3483V75.655H34.5436C34.7911 75.3188 35.1872 75.1506 35.7328 75.1506C36.0428 75.148 36.268 75.2049 36.4084 75.3214C36.5485 75.438 36.6186 75.6252 36.6186 75.8831V76.0465H36.1145C35.5521 76.0435 35.1204 76.1525 34.8192 76.3728C34.5178 76.5931 34.3659 76.8907 34.3633 77.2651C34.3633 77.6396 34.5031 77.9329 34.7823 78.145C35.0644 78.3571 35.4284 78.4631 35.8742 78.4631C36.3295 78.4631 36.6762 78.3446 36.9148 78.1073C37.1531 77.8703 37.2722 77.5509 37.2722 77.1492V75.9725C37.2696 75.5142 37.1416 75.164 36.8889 74.9214C36.6333 74.6789 36.2896 74.5575 35.8582 74.5575Z" fill="#8C4D02"/>
<path d="M39.5803 74.7786C39.4673 74.6876 39.2899 74.6421 39.0477 74.6421C38.6739 74.6448 38.3731 74.7845 38.1459 75.0615C37.9187 75.338 37.8048 75.7292 37.8048 76.2343V77.9632C37.8022 78.0869 37.8336 78.1891 37.8994 78.2696C37.9652 78.3501 38.0572 78.3904 38.175 78.3904H38.4507V76.2844C38.4507 75.8863 38.5017 75.612 38.6038 75.4611C38.7034 75.3106 38.8768 75.2353 39.1243 75.2353C39.3718 75.2353 39.5695 75.2984 39.7174 75.4248H39.7498V75.1197C39.7498 74.9835 39.6932 74.8696 39.5803 74.7786Z" fill="#8C4D02"/>
<path d="M42.4959 77.1034C42.4959 77.3777 42.4337 77.5741 42.31 77.6926C42.183 77.8108 41.9889 77.87 41.7273 77.87C41.4632 77.87 41.2553 77.8134 41.1044 77.7005C40.9535 77.5875 40.8779 77.4491 40.8779 77.2851C40.8805 76.8546 41.2488 76.6396 41.9823 76.6396H42.4959V77.1034ZM41.7273 74.5575C41.2959 74.5575 40.9624 74.6409 40.7264 74.8075C40.4907 74.9745 40.3728 75.1545 40.3728 75.3483V75.655H40.4128C40.6602 75.3188 41.0563 75.1506 41.602 75.1506C41.9119 75.148 42.1371 75.2049 42.2776 75.3214C42.4177 75.438 42.4877 75.6252 42.4877 75.8831V76.0465H41.9836C41.4213 76.0435 40.9895 76.1525 40.6884 76.3728C40.3869 76.5931 40.235 76.8907 40.2324 77.2651C40.2324 77.6396 40.3722 77.9329 40.6514 78.145C40.9336 78.3571 41.2975 78.4631 41.7434 78.4631C42.1987 78.4631 42.5453 78.3446 42.7839 78.1073C43.0222 77.8703 43.1414 77.5509 43.1414 77.1492V75.9725C43.1388 75.5142 43.0108 75.164 42.7581 74.9214C42.5024 74.6789 42.1587 74.5575 41.7273 74.5575Z" fill="#8C4D02"/>
</svg>
